<?xml version="1.0" encoding="iso-8859-1"?>
<!-- Generator: Adobe Illustrator 16.0.0, SVG Export Plug-In . SVG Version: 6.00 Build 0)  -->
<!DOCTYPE svg PUBLIC "-//W3C//DTD SVG 1.1//EN" "http://www.w3.org/Graphics/SVG/1.1/DTD/svg11.dtd">
<svg version="1.1" id="&#x56FE;&#x5C42;_1" xmlns="http://www.w3.org/2000/svg" xmlns:xlink="http://www.w3.org/1999/xlink" x="0px"
	 y="0px" width="784px" height="471px" viewBox="0 0 784 471" style="enable-background:new 0 0 784 471;" xml:space="preserve">
<rect x="0.5" y="9.5" style="fill:#3FA9F5;" width="216" height="360"/>
<rect x="36.5" y="47.5" style="fill:#3FA9F5;" width="147" height="74"/>
<rect x="35.5" y="48.5" style="fill:#FFFFFF;" width="147" height="74"/>
<rect x="34.5" y="264.5" style="fill:#FFFFFF;" width="147" height="74"/>
<rect x="36.5" y="165.5" style="fill:#FFFFFF;" width="186" height="47"/>
<path style="fill:#3FA9F5;" d="M379.5,305.5c0,39.212-31.788,71-71,71l0,0c-39.212,0-71-31.788-71-71l0,0c0-39.212,31.788-71,71-71
	l0,0C347.712,234.5,379.5,266.288,379.5,305.5L379.5,305.5z"/>
<rect x="280.5" y="275.5" transform="matrix(0.7038 0.7104 -0.7104 0.7038 307.9805 -129.6753)" style="fill:#FFFFFF;" width="58" height="58"/>
<path style="fill:#3FA9F5;" d="M783.5,71.5c0,39.212-31.788,71-71,71l0,0c-39.212,0-71-31.788-71-71l0,0c0-39.212,31.788-71,71-71
	l0,0C751.712,0.5,783.5,32.288,783.5,71.5L783.5,71.5z"/>
<rect x="684.5" y="41.5" transform="matrix(0.7038 0.7104 -0.7104 0.7038 261.4093 -485.9769)" style="fill:#FFFFFF;" width="58" height="58"/>
<rect x="396.5" y="2.5" style="fill:#3FA9F5;" width="216" height="360"/>
<rect x="432.5" y="40.5" style="fill:#3FA9F5;" width="147" height="62"/>
<rect x="431.5" y="41.5" style="fill:#FFFFFF;" width="147" height="116"/>
<rect x="431.5" y="201.5" style="fill:#FFFFFF;" width="147" height="124"/>
<rect x="432.5" y="151.5" style="fill:#FFFFFF;" width="190" height="54"/>
<rect x="273.5" y="9.5" style="fill:#3FA9F5;" width="68" height="216"/>
<rect x="446.5" y="102.5" transform="matrix(0.8799 -0.4751 0.4751 0.8799 1.9997 247.9129)" style="fill:#3FA9F5;" width="90" height="35"/>
<rect x="461.5" y="229.5" transform="matrix(0.8799 -0.4751 0.4751 0.8799 -56.5355 270.287)" style="fill:#3FA9F5;" width="90" height="35"/>
<rect x="637.5" y="325.5" style="fill:#3FA9F5;" width="90" height="35"/>
<rect x="638.5" y="240.5" style="fill:#3FA9F5;" width="90" height="35"/>
<rect x="638.5" y="160.5" style="fill:#3FA9F5;" width="90" height="35"/>
<rect x="748.5" y="84.5" style="fill:#3FA9F5;" width="30" height="360"/>
<rect x="695.5" y="377.5" style="fill:#3FA9F5;" width="34" height="67"/>
<rect x="576.5" y="409.5" style="fill:#3FA9F5;" width="34" height="40"/>
<rect x="487.5" y="397.5" style="fill:#3FA9F5;" width="34" height="51"/>
<rect x="396.5" y="382.5" style="fill:#3FA9F5;" width="34" height="67"/>
<rect x="290.5" y="390.5" style="fill:#3FA9F5;" width="34" height="59"/>
<rect x="182.5" y="397.5" style="fill:#3FA9F5;" width="34" height="52"/>
<rect x="-0.5" y="396.5" style="fill:#3FA9F5;" width="34" height="48"/>
<rect x="90.5" y="408.5" style="fill:#3FA9F5;" width="34" height="40"/>
<rect x="-0.5" y="444.5" style="fill:#3FA9F5;" width="779" height="27"/>
<g>
</g>
<g>
</g>
<g>
</g>
<g>
</g>
<g>
</g>
<g>
</g>
<g>
</g>
<g>
</g>
<g>
</g>
<g>
</g>
<g>
</g>
<g>
</g>
<g>
</g>
<g>
</g>
<g>
</g>
</svg>
